<svg xmlns="http://www.w3.org/2000/svg" width="256" height="256"><path fill="#1976D2" fill-opacity=".016" fill-rule="evenodd" d="M0 128.004v128.004l128.25-.254 128.25-.254.254-127.75L257.008 0H0zm.485.496c0 70.4.119 99.053.265 63.672s.146-92.98 0-128S.485 58.1.485 128.5"/><path fill="#1976D2" fill-opacity=".155" fill-rule="evenodd" d="M116 7.871C112.519 9.742 103.424 14 102.91 14c-.307 0-3.722 3.038-7.587 6.75-3.866 3.712-7.995 7.412-9.176 8.221S84 31.187 84 32.098c0 .912-.675 2.217-1.5 2.902S81 36.635 81 37.111c0 .822-2.01 3.542-4.75 6.429-.687.725-1.25 2.026-1.25 2.893s-1.125 3.909-2.5 6.759-2.5 5.736-2.5 6.412-.484 1.391-1.075 1.588c-.646.215-.806 1.434-.401 3.047.592 2.36 2.726 3.881 5.976 4.259.974.113 2.46.642 7.419 2.639 3.731 1.502 20.867 4.751 27.726 5.256 3.38.249 8.166.756 10.636 1.126l4.489.674.689-23.347c.379-12.84.544-28.746.365-35.346l-.324-12-4-.217c-2.2-.12-4.675.145-5.5.588m14 33.047c0 18.655.273 34.63.607 35.5s1.684 1.582 3 1.582H136V7h-6zM88 12.7c-2.475.854-5.281 1.946-6.236 2.426s-2.508.874-3.45.874c-1.333 0-1.447.267-.514 1.2.66.66 1.2 3.51 1.2 6.333s.303 5.436.673 5.806C80.532 30.198 96 14.068 96 12.313c0-1.677-2.346-1.564-8 .387m73.009-.45c.013 1.927 13.65 15.75 15.538 15.75 1.262 0 1.523.584 1.069 2.396-.408 1.622-.12 2.581.891 2.968.821.315 1.493 1.305 1.493 2.2s.82 2.822 1.822 4.282 2.635 4.454 3.628 6.654 2.498 4.793 3.344 5.763c.847.969 1.67 2.988 1.829 4.485.431 4.041 2.466 7.252 4.596 7.252C199.375 64 219 52.248 219 49.76c0-2.361-3.612-6.356-7.022-7.769-1.533-.635-3.013-2.018-3.289-3.073-1.05-4.015-3.635-.917-3.675 4.403C205 45.163 202.791 48 201.371 48c-.424 0-.231-.54.429-1.2s1.2-2.46 1.2-4 .45-2.8 1-2.8c1.305 0 1.273-2.307-.073-5.26C202.876 32.432 191.503 24 189.441 24c-.576 0-2.823-1.275-4.994-2.834s-7.097-4.078-10.947-5.6-7.781-3.171-8.736-3.666c-2.412-1.25-3.766-1.124-3.755.35M74 18.059c0 .582.45.781 1 .441s1-.816 1-1.059S75.55 17 75 17s-1 .477-1 1.059m-7.91 3.959C62.473 24.036 60.121 26 61.321 26c.84 0 8.679-5.088 8.679-5.633 0-.517-.107-.472-3.91 1.651m92.049 2.257c-1.678 2.715-2.662 3.401-4.273 2.98-1.997-.522-2.06-.297-1.359 4.849l.735 5.396-2.102-1.888c-1.627-1.461-2.416-1.628-3.488-.738-.762.632-2.437 1.032-3.722.888-2.151-.241-2.352.135-2.529 4.738-.181 4.743.005 5.138 3.626 7.685 2.164 1.522 3.959 3.687 4.145 5 .296 2.09.789 2.291 5.078 2.073l4.75-.243v4.993c0 4.823 1.899 7.304 2.099 2.742.335-7.658.06-7.25 4.876-7.25 3.693 0 4.534-.349 4.818-2 .19-1.1 2.191-3.621 4.448-5.603l4.104-3.602-2.14-3.463c-1.177-1.905-3.055-4.291-4.173-5.303-1.974-1.786-2.093-1.785-4.182.066l-2.149 1.905.63-4.75c.377-2.841.237-4.8-.35-4.875-.54-.069-1.474-.181-2.076-.25s-1.881-1.644-2.841-3.501l-1.745-3.376zM57.27 27.212c-1.226.591-2.799 2.361-3.494 3.932-1.261 2.849-2.235 3.526-3.029 2.106-.23-.413-.289-.206-.13.46.159.665-1.095 2.465-2.787 4a199 199 0 0 0-6.061 5.79c-1.642 1.65-3.55 2.882-4.241 2.737-.849-.177-1.093.586-.754 2.36.362 1.892 2.388 3.842 7.289 7.012C47.796 58.024 51.828 60 53.023 60c2.146 0 2.168-.177 1.836-14.597l-.335-14.597 2.738-1.435C58.768 28.582 60 27.5 60 26.968c0-1.127.135-1.139-2.73.244M46.5 36c-.995 1.1-1.398 2-.896 2 .503 0 1.477-.9 2.164-2s1.09-2 .895-2c-.194 0-1.168.9-2.163 2m161.25 6.689c-.963.252-1.75.89-1.75 1.42 0 .579.795.536 2-.109 1.1-.589 2-1.28 2-1.535 0-.256-.113-.413-.25-.349s-1.037.322-2 .573M28.298 56.226c-2.268 2.929-2.408 4.116-.241 2.052 1.282-1.222 2.084-2.471 1.78-2.774-.304-.304-.996.021-1.539.722m191.18-.261c.265.428-1.647 1.849-4.248 3.157S210.275 61.725 210 62c-.81.81-7.31 3.809-9.75 4.499-1.238.35-2.25 1.055-2.25 1.568s-.562.82-1.25.683c-1.771-.354-1.379 5.112 1.057 14.75 2.503 9.899 2.873 12.282 4.214 27.119.59 6.535 1.31 12.677 1.599 13.65.487 1.634 2.247 1.748 23.203 1.5l22.677-.269.31-3.751c.335-4.042-1.971-17.994-4.379-26.499L243.944 90H223V73.117c0-16.047-.099-16.91-2.001-17.407-1.101-.288-1.785-.173-1.521.255m-34.88 4.771c-1.036 1.035-.648 7.115.498 7.823 1.883 1.164 4.085-1.991 3.372-4.831-.641-2.552-2.71-4.152-3.87-2.992M24.183 62.217c-.651.65-1.183 1.868-1.183 2.706 0 1.045.502.805 1.602-.765 1.755-2.505 1.469-3.829-.419-1.941M45.236 94.25l.264 31.25 3.251.313c2.728.263 3.411-.109 4.25-2.315.549-1.445 1.001-5.411 1.003-8.813.005-7.362 2.181-21.828 5.104-33.927 1.162-4.808 1.891-9.318 1.621-10.022C60.177 69.297 48.469 63 46.345 63c-1.141 0-1.329 5.287-1.109 31.25M204 69.453c0 .851-.675 1.547-1.5 1.547-1.828 0-1.914 1.1-.25 3.181 1.691 2.115 5.75 3.038 5.75 1.307 0-.728.213-1.924.473-2.656s-.64-2.141-2-3.129c-2.124-1.543-2.473-1.578-2.473-.25M19.297 73.25c-2.082 2.744-6.234 12.533-7.316 17.25-.632 2.75-1.51 5.9-1.951 7-.811 2.018-2.428 11.029-3.539 19.712-.352 2.753-.139 5.577.511 6.793.995 1.858 1.882 2.049 8.306 1.788l7.192-.293.266-26.75c.223-22.333.037-26.75-1.127-26.75-.767 0-1.821.563-2.342 1.25m45.102 2.234c-1.336 4.269-.789 4.849 9.326 9.905C83.645 90.347 84 90.269 84 83.118v-5.882l-8.396-2.618C70.986 73.178 66.821 72 66.348 72c-.472 0-1.349 1.568-1.949 3.484M184.5 72.996c-1.1.474-3.293 1.141-4.873 1.483-2.719.588-2.773.697-1 2.039 1.098.831 4.252 1.432 7.623 1.45 5.06.028 5.75-.204 5.75-1.933 0-1.08-.87-2.43-1.934-3-2.245-1.201-2.856-1.205-5.566-.039m-97.947 7.157c-.294 1.291-.651 4.822-.794 7.847l-.259 5.5-11.735.115C60.117 93.749 59 94.279 59 100.622V105h27l.015 9.25c.009 5.088.39 9.84.847 10.561.55.868 2.489 1.206 5.735 1l4.903-.311.285-10.222.284-10.222 13.716-.278 13.715-.278.301-5.221.302-5.222-13.802-.278L98.5 93.5l-.293-6.634c-.283-6.397-.394-6.653-3.133-7.201a140 140 0 0 1-5.414-1.214c-2.139-.537-2.663-.25-3.107 1.702M157 80.107c-1.925.548-8.675 1.311-15 1.695l-11.5.698-.067 9.763-.066 9.764 33.066-.264c32.313-.257 33.067-.309 33.067-2.263 0-1.925-.757-2.01-20.25-2.271-17.085-.228-20.25-.502-20.25-1.75 0-1.255 2.942-1.479 19.393-1.479 16.146 0 19.488-.246 19.958-1.471.31-.809-.151-2.186-1.025-3.061-1.362-1.361-4.227-1.544-19.959-1.278-14.195.239-18.369.026-18.368-.94.001-.955 4.375-1.25 18.532-1.25 15.903 0 18.617-.222 19.133-1.567 1.013-2.641-.737-3.172-12.664-3.845-6.325-.357-13.525-.835-16-1.063-2.475-.229-6.075.033-8 .582m-57 4.436c0 4.501 2.066 6.381 7.062 6.425 5.913.053 15.841-5.698 14.258-8.259-.277-.448-2.824-.793-5.661-.767-2.838.025-7.521-.219-10.409-.544l-5.25-.591zm-38.361-1.045C59.816 88.249 62.695 91 69.488 91c5.343 0 5.111-1.814-.569-4.446-2.869-1.329-5.537-2.935-5.928-3.569-.49-.792-.913-.631-1.352.513m61.611 5.22c-1.973.708-1.456 2.282.75 2.282 1.1 0 2-.423 2-.941 0-1.28-1.237-1.883-2.75-1.341m7.166 16.199c-1.024 1.025-.268 3.926 1.166 4.476 2.508.962 63.764.674 65.314-.307.767-.486 1.124-1.593.791-2.459-.53-1.38-4.677-1.608-33.73-1.85-18.219-.153-33.313-.089-33.541.14m-71.749 2.75c-.923.922-.837 2.333.142 2.333.445 0 1.682-.661 2.75-1.468 1.907-1.443 1.905-1.469-.142-1.5-1.146-.018-2.384.268-2.75.635m8.833 2.817c-3.85 1.886-7.585 3.448-8.3 3.472-.947.032-1.218 1.606-1 5.794l.3 5.75 12.75.28 12.75.28v-8.102c0-5.687-.426-8.526-1.429-9.529-2.321-2.322-7.605-1.601-15.071 2.055m42.5-2.564c0 1.267 13.867 8.28 14.995 7.583.542-.335.921-2.29.84-4.345l-.146-3.735-7.845-.168c-4.314-.092-7.844.208-7.844.665m-9.79 9.33.29 8.25h25v-2.489c0-2.178-1.438-3.201-11.5-8.181-6.325-3.131-12.081-5.723-12.79-5.761-.978-.052-1.22 1.933-1 8.181m30.47-4.597c-.374.374-.68 1.736-.68 3.027v2.347l33.75-.264 33.75-.263v-5l-33.07-.263c-18.189-.145-33.376.042-33.75.416m-.68 8.643c0 .727.563 2.09 1.25 3.028 1.142 1.558 4.114 1.683 34.25 1.441l33-.265v-5l-34.25-.263c-27.861-.214-34.25-.017-34.25 1.059M6.786 130.548c-1.705 1.705 1.732 24.052 5.346 34.755C17.135 180.122 29.765 202 33.317 202c.712 0 2.844-1.162 4.739-2.583 1.894-1.42 7.832-4.799 13.194-7.509 5.549-2.803 9.75-5.548 9.75-6.368 0-.793-.687-4.052-1.526-7.241-2.545-9.668-5.474-29.37-5.474-36.826C54 129.608 54.85 130 29.11 130c-11.977 0-22.023.246-22.324.548M203 133.339c0 2.537.566 3.598 2.354 4.413 1.295.59 8.199 4.937 15.342 9.66 12.756 8.435 13.096 8.588 19.11 8.588 7.515 0 7.733-.314 9.402-13.526 1.156-9.149 1.118-9.763-.683-11.08-1.493-1.091-6.644-1.394-23.716-1.394H203zm-72.602 4.066c-.296.772-.395 2.91-.218 4.75l.32 3.345 31.5.28c17.325.153 32.483.04 33.683-.253 2.535-.617 3.759-3.628 2.888-7.099l-.609-2.428H164.45c-27.857 0-33.604.237-34.052 1.405M86.5 142.496c-2.2.811-4.11 1.481-4.244 1.489s-1.596 1.883-3.25 4.165C71.305 158.781 78.955 174 92 174c5.514 0 10.219-2.733 13.815-8.024 1.975-2.907 2.296-4.42 1.959-9.239-.445-6.359-2.616-10.157-7.379-12.911-4.348-2.515-9.373-2.996-13.895-1.33m115.997-.246c-.242.688-.894 5.822-1.449 11.411-.961 9.691-1.773 13.99-4.629 24.518-1.806 6.659-1.019 8.38 5.233 11.439 5.373 2.629 5.45 2.636 7.638.74 1.215-1.053 6.845-5.034 12.509-8.846 7.909-5.322 11.37-7.057 14.91-7.472l4.61-.54 2.218-6.173c2.707-7.534 2.155-8.327-5.804-8.327-5.744 0-6.146-.19-19.072-9-13.284-9.054-15.355-10.047-16.164-7.75M162.5 149c-.441 1.389-1.513 2-3.508 2-3.623 0-4.338 1.146-2.81 4.499.946 2.077.941 3.074-.022 4.616-1.557 2.493-.71 3.885 2.364 3.885 1.382 0 2.861.851 3.476 2 1.214 2.268 5 2.728 5 .607 0-1.518 2.098-2.607 5.023-2.607 2.559 0 3.28-1.542 1.817-3.885-.973-1.557-.969-2.536.017-4.7 1.411-3.097.375-4.372-3.572-4.4-1.218-.008-2.696-.915-3.285-2.015s-1.699-2-2.468-2-1.683.9-2.032 2m-139.5.906c0 1.493.488 1.773 2.25 1.291 1.845-.505 1.933-.682.488-.982-.969-.202-1.505-.782-1.191-1.291s.094-.924-.488-.924-1.059.858-1.059 1.906m139.472 6.125c-1.671 1.847-1.696 2.174-.267 3.603 1.95 1.95 5.795.954 5.795-1.501 0-1.708-1.787-4.133-3.045-4.133-.355 0-1.472.914-2.483 2.031m87.195 2.636c-.367.366-.667 1.131-.667 1.7 0 .626.466.567 1.183-.15.651-.651.951-1.416.667-1.7s-.817-.217-1.183.15m-3.588 11.916c.048 1.165.285 1.402.604.605.289-.722.253-1.585-.079-1.917s-.568.258-.525 1.312M131 170.878c0 2.018 3.034 2.887 12.232 3.506 5.352.359 14.127 1.651 19.5 2.87 9.476 2.151 28.209 3.144 29.77 1.579.367-.367.913-2.505 1.214-4.75l.547-4.083h-31.631c-17.479 0-31.632.393-31.632.878m92.345 13.255c-10.299 6.774-12.294 8.409-12.33 10.1-.008.403 2.122 1.87 4.735 3.259s5.5 3.058 6.416 3.709c2.14 1.52 3.621.335 8.182-6.544 6.875-10.368 8.888-14.667 7.598-16.222-.655-.789-1.768-1.435-2.473-1.435s-6.163 3.21-12.128 7.133m-115.136-5.021c-1.261.47-4.523.933-7.25 1.03S96 180.696 96 181.159s-1.72.841-3.822.841c-3.379 0-9.677 1.585-15.678 3.946-1.1.433-3.346 1.194-4.99 1.691-3.936 1.19-4.101 2.831-.972 9.665L73.147 203h22.309l-3.651 3.009c-6.336 5.223-5.893 12.001 1.093 16.704L96.296 225h-3.589c-1.974 0-3.895.495-4.268 1.099-.857 1.386 9.235 11.664 15.981 16.276s16.927 8.045 19.608 6.61c1.777-.951 1.972-2.131 1.972-11.913 0-8.979-.274-10.963-1.582-11.465-.87-.334-7.282-.644-14.25-.689-11.789-.075-12.445-.179-9.449-1.49 3.477-1.521 6.281-5.871 6.281-9.743 0-2.995-3.4-7.447-6.881-9.01-2.195-.985-.44-1.22 10.841-1.455 9.229-.193 13.703-.664 14.235-1.5.426-.671.781-5.575.79-10.899.019-12.06-.597-12.899-9.317-12.702-3.392.076-7.199.523-8.459.993m131.053 6.542c-1.781 3.49-3.051 6.346-2.823 6.346.781 0 6.721-11.021 6.391-11.857-.182-.46-1.787 2.02-3.568 5.511m-108.607 2.096c-.264.963-.467 5.688-.45 10.5.028 8.416.116 8.75 2.295 8.75 1.685 0 3.341-1.651 6.466-6.448 2.31-3.546 4.045-7.258 3.854-8.25-.191-.991-.71-1.577-1.154-1.302s-1.247-.287-1.786-1.25-1.632-1.75-2.43-1.75c-.797 0-1.45-.45-1.45-1 0-1.784-4.836-1.105-5.345.75m49.852 1.228c-.346 1.09-1.164 1.878-1.818 1.752-2.089-.404-1.895 4.672.267 6.993 1.124 1.206 2.044 2.662 2.044 3.235s.93 1.042 2.067 1.042c1.586 0 1.925-.449 1.457-1.926-.365-1.149-.046-2.258.791-2.75 1.576-.926 3.175-7.927 1.966-8.608-.43-.242-1.988-.728-3.463-1.08-2.121-.506-2.814-.226-3.311 1.342M56.5 193.229c-1.65.589-3.225 1.377-3.5 1.751s-1.962 1.317-3.75 2.094c-1.788.778-3.25 1.754-3.25 2.17s-.9.756-2 .756-2 .488-2 1.083c0 .596-.558.898-1.241.67-1.718-.573-3.759 1.687-3.759 4.16 0 1.13 1.319 3.525 2.93 5.321l2.931 3.266 3.448-3.329c2.519-2.431 4.628-3.461 7.82-3.817l4.371-.488-4.02 1.915c-3.771 1.797-6.48 5.444-6.48 8.726 0 4.99 32.584 24.894 44.25 27.029 4.963.909 4.912-.746-.161-5.193-2.152-1.885-5.829-5.997-8.174-9.136-5.521-7.394-7.6-9.207-10.557-9.207-2.848 0-4.1-2.401-2.352-4.507 1.54-1.855 1.058-3.984-3.168-13.993-4.942-11.706-4.813-11.601-11.338-9.271m134.868 1.521c-.368 1.512-1.727 5.084-3.019 7.936-2.648 5.845-2.916 7.921-1.099 8.495.688.218 7.905.154 16.039-.143 11.635-.423 14.991-.858 15.734-2.038.519-.825.809-1.95.643-2.5-.777-2.574-21.85-14.5-25.622-14.5-1.359 0-2.222.887-2.676 2.75m42.815-.533c-.651.651-1.183 1.868-1.183 2.706 0 1.045.502.805 1.602-.765 1.755-2.505 1.469-3.829-.419-1.941m-81.683 3.391c-4.464 2.443-6.504 4.483-8.606 8.602-5.954 11.666 2.808 25.79 15.999 25.79 4.647 0 5.141-.264 8.885-4.75 6.202-7.43 9.222-12.32 9.222-14.929 0-3.746-3.624-9.932-7.589-12.956-4.532-3.457-13.243-4.312-17.911-1.757m76.674 3.907c-1.196 1.375-2.174 2.774-2.174 3.109s-5.175 5.727-11.5 11.982-11.5 11.633-11.5 11.951c0 2.636 18.41-15.071 24.335-23.405 4.008-5.638 4.525-7.876.839-3.637M92.25 209.496c-1.591 1.807-1.623 7.731-.05 9.304.66.66 1.885 1.2 2.723 1.2 1.063 0 .852-.469-.7-1.557-3.838-2.688-2.212-9.443 2.273-9.443 2.222 0 6.504 3.366 6.504 5.112 0 .404-1.385 2.119-3.077 3.811S97.375 221 98.022 221c1.197 0 6.979-5.682 6.977-6.856-.001-.354-1.066-1.882-2.367-3.394-2.651-3.083-8.183-3.752-10.382-1.254m89.785 4.438c-1.423 2.659-1.305 3.107.623 2.367 1.416-.543 1.572-.104 1.066 3.013-.648 3.995.544 5.538 2.82 3.65 1.025-.851 1.456-.877 1.456-.086 0 .617.9 1.122 2 1.122s2-.505 2-1.122c0-.768.482-.723 1.524.142 2.058 1.708 2.809.7 2.81-3.77 0-4.091-2.15-5.477-4.924-3.175-1.132.939-1.776.959-2.652.083-.637-.637-2.241-1.158-3.565-1.158-1.729 0-2.245-.423-1.831-1.5.826-2.155-.104-1.85-1.327.434m-4.843 7.466c-1.132 1.917-1.525 3.278-.874 3.025 1.234-.481 3.931-5.509 3.295-6.145-.201-.201-1.29 1.203-2.421 3.12M188 220c0 .55.648 1 1.441 1s1.719-.45 2.059-1-.309-1-1.441-1-2.059.45-2.059 1m-57.731 6.25c.022 2.887.532 5.886 1.135 6.663.809 1.043.769 1.522-.154 1.833-.687.231-1.25 1.717-1.25 3.302 0 3.564 3.667 6.108 5.421 3.76.593-.795 2.542-2.086 4.329-2.87 4.173-1.831 4.107-3.55-.414-10.669-3.971-6.253-4.978-7.23-7.47-7.254-1.312-.012-1.627 1.021-1.597 5.235m50.563.668c-5.424.557-5.915.854-11.399 6.882-3.205 3.523-6.304 6.08-7.031 5.801-.863-.332-1.092.043-.681 1.114q.618 1.612-.551.89c-1.316-.814-1.562 1.229-.373 3.1 1.313 2.066 19.49-5.264 31.016-12.508 4.357-2.738 5.1-3.597 4.128-4.768-1.225-1.477-4.593-1.591-15.109-.511M201 230c0 .55-.562 1.01-1.25 1.022-1.518.027-6.673 3.924-5.232 3.956 1.114.024 8.482-4.765 8.482-5.514 0-.255-.45-.464-1-.464s-1 .45-1 1m-15.961 9.558c-3.553 1.893-5.858 3.442-5.122 3.442 1.387 0 12.083-5.819 12.083-6.573 0-.595.209-.689-6.961 3.131m-21.226 9.125c.721.289 1.584.253 1.916-.079s-.258-.568-1.312-.525c-1.165.048-1.402.285-.604.604M158 250c-1.282.828-1.246.972.25.985.963.008 1.75-.435 1.75-.985 0-1.22-.113-1.22-2 0"/><path fill="#1976D2" fill-opacity=".552" fill-rule="evenodd" d="M115.656 9.963c-7.13 2.292-14.426 7.051-21.427 13.975-8.434 8.343-20.012 26.579-18.83 29.659.786 2.05 46.798 2.075 48.498.027.799-.963 1.061-7.954.873-23.237-.229-18.528-.499-21.895-1.77-22.082-.825-.122-4.13.624-7.344 1.658m16.863.128c-1.018 2.652-.076 66.409.981 66.409 1.358 0 1.893-65.507.547-66.853-.642-.642-1.171-.488-1.528.444m-45.961 5.563C80.941 17.678 80 18.75 80 23.122c0 2.78.425 3.878 1.5 3.878.825 0 1.5-.437 1.5-.971s2.25-3.162 5-5.841c6.804-6.628 6.554-7.416-1.442-4.534m83.488 5.096c2.935 3.163 5.451 5.914 5.592 6.114s1.892-.647 3.891-1.882c4.389-2.712 3.859-3.438-5.345-7.319-9.47-3.993-10.202-3.447-4.138 3.087M158 26c-.777 1.875-1.97 3-3.183 3-1.732 0-1.867.481-1.265 4.5.722 4.813.146 5.441-2.66 2.902-1.101-.996-2.26-1.279-3.079-.75-.722.466-2.182.848-3.245.848-1.565 0-1.974.791-2.151 4.162-.197 3.75.169 4.474 3.682 7.298 2.146 1.724 3.901 3.947 3.901 4.94 0 1.629.947 1.788 9.664 1.626 8.67-.161 9.74-.385 10.405-2.184.408-1.103 2.181-3.216 3.939-4.696 3.686-3.101 3.558-5.37-.562-10.008-2.362-2.658-2.668-2.747-4.323-1.25-2.937 2.659-4.105 2.035-3.053-1.631 1.346-4.696 1.165-5.757-.986-5.757-1.168 0-2.435-1.172-3.244-3-.731-1.65-1.614-3-1.963-3s-1.194 1.35-1.877 3m27.021.116c-3.241 1.293-6.021 3.85-6.021 5.539 0 .936 1.445 1.35 4.75 1.36 4.92.016 9.397 1.3 15.018 4.307 3.038 1.625 3.313 1.63 3.909.077.914-2.382-.591-4.293-6.76-8.582-5.73-3.984-6.933-4.282-10.896-2.701M45.111 41.603C41.2 45.225 38 48.717 38 49.364c0 1.588 13.683 9.95 14.975 9.151 1.266-.782 1.392-22.17.136-22.946-.489-.302-4.089 2.413-8 6.034M181 35.299c0 .301 1.865 4.005 4.145 8.232 4.135 7.666 4.152 7.682 7.656 7.114 4.236-.688 9.395-5.31 8.989-8.054-.403-2.723-9.075-6.85-15.54-7.396-2.887-.243-5.25-.196-5.25.104m21.5 14.717c-7.789 5.093-9 6.261-9 8.684 0 3.677 2.934 4.134 8.125 1.265C212.947 53.71 218 50.47 218 49.467c0-1.359-4.26-5.493-5.564-5.401-.515.036-4.986 2.714-9.936 5.95m-42.833 7.651C158.62 58.714 158.888 63 160 63c.55 0 1-1.35 1-3 0-3.107-.204-3.463-1.333-2.333m58.833 1.399c-1.65 1.12-5.137 3.146-7.75 4.502-5.33 2.767-6.044 4.989-2.087 6.494 2.024.769 2.384 1.291 1.5 2.175-.64.64-1.163 2.439-1.163 3.998 0 2.525-.219 2.718-2 1.765-1.421-.76-2.579-.76-4 0-1.798.962-2 .76-2-1.996 0-2.742-2.22-5.117-3.544-3.793-.253.252.416 3.879 1.485 8.059 2.53 9.891 4.781 24.123 5.461 34.531.299 4.566.807 8.728 1.13 9.25.937 1.517 40.998 1.231 42.219-.301 1.192-1.495.011-12.979-2.389-23.25-2.57-10.993-1.942-10.5-13.373-10.5h-9.941l-.274-16.485-.274-16.486zM46.235 94.286 46.5 124.5l2.254.32c2.894.411 3.023-.031 4.172-14.32.9-11.2 3.668-27.475 6.031-35.46.563-1.902.646-3.837.185-4.298s-3.613-2.151-7.005-3.755l-6.166-2.916zM185 65c0 .55.45 1 1 1s1-.45 1-1-.45-1-1-1-1 .45-1 1M65.955 76.083c-.874 1.633-.781 2.452.43 3.79 1.834 2.026 15.351 8.725 16.098 7.978.631-.632 1.012-8.726.431-9.181-.681-.533-13.879-4.67-14.9-4.67-.519 0-1.445.937-2.059 2.083m119.16-.69c-1.629.903-2.007 1.556-1.193 2.059 1.793 1.108 6.078-.282 6.078-1.971 0-1.811-1.72-1.842-4.885-.088M18.894 80.5C14.27 89.37 9.001 110.277 9 119.75V124h6.031c3.958 0 6.2-.437 6.52-1.272.268-.699.367-11.612.218-24.25L21.5 75.5zm68.784.155c-.373.373-.678 3.514-.678 6.981v6.302l-12.188.281-12.188.281-.872 3.372c-1.534 5.93-1.124 6.128 12.682 6.128H86.93l.285 10.25.285 10.25h9l.5-10 .5-10 13.5-.5 13.5-.5v-9l-13.75-.278L97 93.944v-5.913c0-3.252-.338-6.105-.75-6.341-1.603-.914-7.929-1.678-8.572-1.035m67.822 1.922c-3.3.663-6 1.29-6 1.393 0 .163-3.247.365-14.571.907-2.541.122-2.571.219-2.538 8.137l.034 8.014 31.537-.264c20.183-.169 31.538-.624 31.538-1.264 0-.617-7.667-1.192-20-1.5-19.167-.479-20-.583-20-2.5 0-1.921.757-2.011 19.25-2.272 15.5-.218 19.25-.538 19.25-1.641 0-2.219-4.344-2.716-21.908-2.509-15.663.185-16.592.09-16.592-1.691 0-1.772 1.138-1.904 18.75-2.159 11.769-.171 18.75-.648 18.75-1.281 0-1.57-1.506-1.764-17-2.183-8.944-.242-16.799.069-20.5.813M101 85.441c0 3.265.938 3.611 4.431 1.633 4.518-2.559 4.388-4.074-.348-4.074-3.662 0-4.083.252-4.083 2.441m8.272 1.454c-5.013 2.7-5.8 4.105-2.302 4.105 2.548 0 12.103-5.072 11.474-6.091-.956-1.546-3.729-.945-9.172 1.986M64 87.454c0 1.991 4.292 4.032 6.609 3.143 1.612-.619 1.598-.762-.186-1.997C66.974 86.213 64 85.683 64 87.454m68.188 19.282c.316 1.641 2.561 1.764 32.326 1.764 27.765 0 31.986-.198 31.986-1.5 0-1.297-4.376-1.536-32.326-1.764-30.426-.248-32.306-.16-31.986 1.5m-64.938 4.871c-3.987 1.947-7.25 4.182-7.25 4.966 0 .785.563 1.427 1.251 1.427 1.62 0 16.501-7.79 17.276-9.043 1.265-2.048-4.364-.725-11.277 2.65m46.162-2.749c.93 1.505 8.038 5.142 10.048 5.142 2.288 0 1.866-1.741-.854-3.523-3.092-2.025-10.221-3.281-9.194-1.619m-41.53 5.932c-11.043 5.407-12.977 6.798-12.216 8.783.43 1.12 2.986 1.427 11.868 1.427 9.633 0 11.368-.241 11.643-1.619.524-2.624-.295-13.385-1.016-13.341-.363.022-4.989 2.159-10.279 4.75m29.324 2.46.294 7.25 10.914.286c11.368.297 14.293-.524 11.543-3.239-1.396-1.378-21.144-11.547-22.425-11.547-.341 0-.487 3.263-.326 7.25m31.225-3.138c-.378.611-.067 1.504.691 1.984.758.481 14.878.873 31.378.873s30.62-.392 31.378-.873c4.129-2.615-.745-3.096-31.378-3.096-21.946 0-31.589.334-32.069 1.112m.194 7.686c-1.817 2.94 1.339 3.228 32.43 2.967 29.006-.245 31.444-.399 31.755-2.015.315-1.637-1.726-1.75-31.678-1.75-17.608 0-32.236.359-32.507.798M8.353 133.522c-1.191 3.105 2.242 22.34 5.887 32.978 4.022 11.741 16.395 34.5 18.756 34.5.442 0 3.211-1.624 6.154-3.608 2.942-1.985 8.837-5.365 13.1-7.511 4.262-2.147 7.75-4.014 7.75-4.149s-.461-1.817-1.024-3.739c-1.458-4.974-5.81-26.83-6.172-30.993-.167-1.925-.844-3.5-1.504-3.5s-1.777-.577-2.483-1.283c-1.043-1.043-.858-1.394.996-1.878 2.079-.544 2.253-1.089 1.983-6.218L51.5 132.5l-21.274-.27c-18.527-.235-21.351-.068-21.873 1.292m197.333-.875c-1.778 1.779.31 3.724 13.695 12.756l14.382 9.704 5.801-.304c5.494-.287 5.844-.462 6.632-3.303.457-1.65.938-6.6 1.068-11l.236-8-20.564-.27c-11.31-.148-20.872.039-21.25.417M42 139.059c0 1.132.45 1.781 1 1.441s1-1.266 1-2.059S43.55 137 43 137s-1 .927-1 2.059m90.39-.632c-.302.785-.4 2.473-.219 3.75l.329 2.323h64l.31-3.75.311-3.75h-32.092c-26.877 0-32.181.232-32.639 1.427M24 143.5c-.667 1.756-1.702 2.5-3.475 2.5-3.089 0-3.243 1.279-.383 3.178 1.86 1.236 1.981 1.723.919 3.708-1.588 2.967-.676 3.781 2.395 2.137 2.106-1.126 2.833-1.064 5.13.442l2.678 1.754-.663-3.531c-.551-2.94-.293-3.79 1.541-5.075 2.298-1.609 1.837-2.101-2.642-2.815-1.181-.188-2.131-1.236-2.32-2.558-.424-2.974-2-2.845-3.18.26m59.041 2.119c-6.522 5.488-8.019 14.007-3.602 20.506 5.965 8.779 18.475 9.098 24.929.637 2.064-2.706 2.632-4.575 2.632-8.656C107 148.26 101.676 143 91.709 143c-4.534 0-6.128.481-8.668 2.619m121.499-1.369c-.218.688-.582 3.882-.809 7.098l-.412 5.848 6.873 4.57c3.779 2.514 6.52 4.872 6.09 5.24s-4.445 3.215-8.922 6.323c-4.476 3.109-8.414 6.369-8.75 7.244-1.435 3.741-.582 5.467 3.743 7.568l4.352 2.114 12.933-8.627c10.33-6.891 13.667-8.628 16.576-8.628 3.505 0 3.721-.211 5.728-5.574 1.147-3.065 1.877-5.91 1.623-6.322-.255-.411-2.959-.814-6.009-.894-5.188-.136-6.381-.698-18.45-8.678-7.097-4.693-13.189-8.532-13.536-8.532-.348 0-.811.563-1.03 1.25M163 150q-1.07 2-4.142 2c-2.539 0-2.944.303-2.336 1.75 1.429 3.4 1.653 6.024.572 6.692-1.744 1.078-1.268 2.558.824 2.558 2.981 0 5.082 1.078 5.082 2.607 0 2.095 2.779 1.674 4-.607.701-1.31 2.094-2 4.035-2 2.982 0 3.917-1.293 1.857-2.567-.686-.424-.872-2.157-.488-4.559.608-3.8.56-3.874-2.486-3.874-2.264 0-3.247-.542-3.628-2-.288-1.1-.905-2-1.371-2-.467 0-1.33.9-1.919 2m-114.554 5.087c-1.03 1.668 1.287 3.58 2.667 2.2C52.267 156.133 51.545 154 50 154c-.485 0-1.184.489-1.554 1.087m113.804-.425c-1.985.801-1.47 5.15.75 6.338 2.169 1.161 6-.18 6-2.101 0-3.653-3.207-5.666-6.75-4.237M42 162.917c0 1.228.646 2.083 1.573 2.083.932 0 1.442-.68 1.25-1.667-.486-2.509-2.823-2.853-2.823-.416m160.668-.17c-1.269 2.106-2.401 8.3-1.606 8.791 1.051.65 4.106-.849 6.395-3.137 1.277-1.277 1.362-1.914.41-3.062-1.668-2.009-4.653-3.498-5.199-2.592M133 170.79c0 .435 5.063 1.353 11.25 2.041s15.332 2.152 20.322 3.252c6.277 1.384 11.816 1.91 17.979 1.709 8.756-.287 8.923-.339 9.891-3.101.763-2.175.655-3.018-.478-3.735-1.778-1.124-58.964-1.285-58.964-.166m90.625 14.265c-5.844 3.881-10.617 7.593-10.607 8.25.018 1.178 9.165 7.695 10.801 7.695 1.133 0 6.139-7.157 10.074-14.401 2.978-5.483 3.436-8.599 1.264-8.599-.498 0-5.688 3.175-11.532 7.055M132.5 188c-.845 1.367.4 3.18 1.652 2.406.557-.344.301.751-.569 2.434-2.035 3.935-2.072 6.562-.083 5.798 1.879-.721 1.868.292-.032 2.803-.807 1.068-1.468 2.53-1.468 3.25 0 2.924 2.725.879 6.5-4.878 5.053-7.706 5.088-7.813 2.583-7.813-1.246 0-2.083-.645-2.083-1.607 0-.976-.557-1.393-1.417-1.063a1.534 1.534 0 0 1-1.969-.893c-.638-1.664-2.219-1.885-3.114-.437m48.5 2.5c0 .833-.889 1.5-2 1.5-2.512 0-2.501.488.096 4.136l2.097 2.944 2.556-2.557c2.217-2.216 2.406-2.887 1.425-5.04-1.233-2.706-4.174-3.399-4.174-.983m-128.5 7.309c-9.397 5.043-14.473 8.465-14.488 9.767-.006.591 1.099 2.119 2.457 3.394l2.468 2.32 4.034-3.645c3.33-3.008 4.777-3.639 8.282-3.613 2.336.017 5.121.692 6.188 1.5 1.805 1.365 1.641 1.468-2.327 1.468-3.384 0-4.873.605-7.191 2.923-4.298 4.298-3.792 6.365 2.827 11.562 3.163 2.482 6.171 4.514 6.686 4.514.514.001 1.864.862 3 1.914 4.311 3.994 26.868 14.116 28.29 12.694.326-.326-1.876-3.183-4.892-6.35s-6.774-7.708-8.349-10.093c-2.448-3.706-3.272-4.275-5.676-3.923-1.818.267-3.37-.203-4.389-1.329-1.438-1.589-1.428-1.969.102-4.305 1.628-2.485 1.547-2.867-2.661-12.585-2.781-6.423-4.882-10.013-5.85-9.996-.831.015-4.661 1.717-8.511 3.783m140.805-2.059c-.348.963-1.684 4.168-2.969 7.124s-2.336 5.769-2.336 6.25c0 .482 6.47.876 14.378.876 11.661 0 14.616-.288 15.642-1.524.696-.838 1.088-1.666.873-1.838-5.467-4.37-20.772-12.638-23.396-12.638-.858 0-1.844.787-2.192 1.75m-38.391 2.206c-10.035 3.041-14.781 14.504-9.937 24 2.769 5.426 7.229 8.314 13.666 8.847 4.938.41 5.538.214 8.248-2.686 1.607-1.721 4.584-5.631 6.614-8.691 3.123-4.704 3.591-6.1 3.037-9.054-.872-4.65-6.795-11.07-11.39-12.347-4.186-1.162-6.579-1.178-10.238-.069m-65.835 12.627c.048 1.165.285 1.402.604.605.289-.722.253-1.585-.079-1.917s-.568.258-.525 1.312m6.671 1.499c-2.202 1.28-2.276 4.502-.123 5.328 2.191.841 4.539-1.266 4.171-3.744-.36-2.426-1.699-2.95-4.048-1.584M89 217.616c0 1.201 3.807 4.937 4.376 4.295.2-.226-.703-1.527-2.006-2.89-1.304-1.363-2.37-1.996-2.37-1.405m43 5.951c0 .861 1.125 3.041 2.5 4.844 2.834 3.715 3.124 4.766 1.101 3.989-1.995-.765-2.883 1.205-1.612 3.579.867 1.62.777 2.021-.454 2.021-.844 0-1.535.675-1.535 1.5 0 1.826.79 1.871 4.331.25 2.179-.998 2.612-1.727 2.15-3.621-.536-2.191-.456-2.247 1.05-.741 2.207 2.207 3.774 1.067 2.335-1.699-2.008-3.857-8.005-11.689-8.951-11.689-.503 0-.915.705-.915 1.567m-43 2.992c0 1.509 8.976 9.842 14.428 13.394 5.688 3.706 16.061 8.047 19.229 8.047 1.043 0 1.343-2.459 1.343-11v-11h-17.5c-9.625 0-17.5.251-17.5.559m88 1.083c-.825.225-2.536 1.922-3.801 3.771s-4.177 5.096-6.469 7.216c-3.094 2.863-3.748 3.936-2.542 4.169 4.192.807 31.634-12.659 30.276-14.856-.56-.906-14.379-1.143-17.464-.3"/><path fill="#1976D2" fill-opacity=".158" fill-rule="evenodd" d="M115.609 11.093c-11.297 3.886-20.32 11.103-28.743 22.993C82.828 39.785 76 51.396 76 52.562c0 .241 10.523.438 23.384.438h23.383l.73-20.912c.401-11.502.427-21.402.057-22-.867-1.403-.986-1.388-7.945 1.005M85.5 18c-.34.55-.141 1 .441 1S87 18.55 87 18s-.198-1-.441-1-.719.45-1.059 1m-2.771 1.604c-.401.401-.715 1.667-.699 2.813.028 1.923.111 1.946 1.071.295 1.119-1.922.833-4.312-.372-3.108m75.862 7.22c-.903 1.747-2.306 3.176-3.117 3.176-1.714 0-1.945 3.251-.431 6.081 1.594 2.978-1.828 3.903-4.093 1.106-1.445-1.784-1.931-1.915-2.881-.77-.628.757-1.965 1.162-2.969.899-1.536-.402-1.827.136-1.827 3.378 0 3.222.554 4.264 3.366 6.331 1.852 1.361 3.611 3.375 3.909 4.475.491 1.808 1.391 2 9.37 2 5.788 0 8.688-.364 8.422-1.056-.223-.581 1.428-2.53 3.669-4.331 4.479-3.599 4.62-5.582.703-9.862-1.909-2.086-2.187-2.131-3.848-.628-.984.891-2.481 1.354-3.327 1.03-1.751-.672-2.017-2.238-.537-3.153 1.642-1.015 1.195-5.5-.548-5.5-.852 0-2.149-1.429-2.884-3.176l-1.335-3.175zm25.159.748c-4.466 2.423-3.441 4.111 2.983 4.914 3.153.394 7.878 1.803 10.5 3.132L202 38.034v-2.27c0-1.69-1.53-3.226-5.995-6.017-6.579-4.113-8.165-4.394-12.255-2.175m-1.583 8.243c.183.449 1.908 3.856 3.833 7.571 3.392 6.546 3.601 6.739 6.76 6.246 3.412-.533 4.857-1.665 7.072-5.539 1.684-2.945 1.151-3.436-7.106-6.544-6.765-2.546-11.188-3.273-10.559-1.734M44.926 42.652C41.667 45.761 39 48.817 39 49.444 39 50.471 50.737 58 52.338 58c.364 0 .662-4.725.662-10.5 0-6.817-.377-10.5-1.074-10.5-.591 0-3.741 2.543-7 5.652M218.17 60.23c-.676.676-3.3 2.369-5.831 3.762-5.099 2.806-5.696 4.346-1.87 4.824 2.763.346 3.45 2.894 1.031 3.822-.926.356-1.5 1.875-1.5 3.969 0 3.465-1.558 4.435-3.693 2.3-1.646-1.646-5.308.687-5.301 3.378.003 1.218.425 3.79.938 5.715 1.957 7.342 3.74 21.383 3.969 31.25L206 123h41.208l-.727-8.25c-.4-4.537-1.164-9.375-1.698-10.75-.535-1.375-1.147-3.4-1.362-4.5s-.674-3.463-1.02-5.25l-.628-3.25H222V75c0-16.355-.462-18.138-3.83-14.77M47.365 68.232c.334 1.248.614 14.081.621 28.518.012 21.743.253 26.25 1.405 26.25 1.06 0 1.572-2.676 2.155-11.25.929-13.679 1.118-14.964 4.453-30.25 2.341-10.732 2.626-9.721-3.593-12.768l-5.648-2.767zM67 77.487c0 2.077 1.152 3.068 6.975 6 3.836 1.932 7.436 3.513 8 3.513S83 85.415 83 83.479c0-3.807.121-3.72-9.5-6.858-6.418-2.093-6.5-2.082-6.5.866m20.799 10.706L87.5 94.5l-12.25.281C63.082 95.06 63 95.078 63 97.449c0 1.313-.273 3.099-.607 3.969-.534 1.393.959 1.582 12.5 1.582H88v20h7.928l.286-9.75.286-9.75 13.255-.5c7.291-.275 13.253-.838 13.25-1.25S123 99.663 123 98.029v-2.971l-13.25-.279L96.5 94.5l-.5-6-.5-6-3.701-.307-3.701-.308zm86.723-5.415c-8.238.153-15.304.603-15.703 1s4.992.6 11.978.451c16.632-.354 20.917-.622 19.703-1.229-.55-.275-7.74-.375-15.978-.222M102 85.559c0 2.557.632 2.578 3.797.124 1.063-.825 1.063-1.155 0-1.829-2.384-1.513-3.797-.878-3.797 1.705m48.693-1.109c-.853.853-2.243 1.55-3.09 1.55-.958 0-1.323.567-.965 1.5.729 1.9 2.976 1.947 3.694.078.3-.783 1.491-1.57 2.646-1.75 1.156-.181 2.107-.778 2.114-1.328.022-1.668-2.75-1.699-4.399-.05m-40.616 2.792c-2.433 1.179-3.844 2.336-3.137 2.571 1.208.403 10.06-3.454 10.06-4.383 0-.937-2.714-.227-6.923 1.812m26.173-1.422c-2.481.352-3.148 3.18-.75 3.18.825 0 1.5-.45 1.5-1s.9-1 2-1 2 .45 2 1c0 1.52 2.712 1.194 3.323-.399.566-1.476-3.658-2.409-8.073-1.781M66 88.5c.685.825 2.202 1.497 3.372 1.494 1.844-.006 1.746-.205-.736-1.5-3.612-1.884-4.203-1.883-2.636.006m71 1.531c0 .568.787 1.33 1.75 1.694C142.136 93.008 144.596 97 142 97c-.55 0-1-.675-1-1.5 0-.833-.889-1.5-2-1.5s-2 .667-2 1.5c0 .825-.675 1.5-1.5 1.5s-1.5.675-1.5 1.5c0 1.962 1.732 1.911 3.754-.111 1.481-1.481 1.705-1.481 2.789 0 1.64 2.243 1.964 2.121 6.341-2.389 3.657-3.768 7.116-5.226 7.116-3 0 .55-.9 1-2 1-1.111 0-2 .667-2 1.5 0 .825.689 1.5 1.531 1.5.843 0 1.791.675 2.107 1.5.485 1.264 3.709 1.5 20.469 1.5 12.595 0 19.893-.367 19.893-1s-7.177-1-19.531-1c-16.512 0-19.622-.234-20.112-1.513-.32-.832-.025-2.182.654-3 .998-1.203 4.794-1.53 19.861-1.713l18.628-.226-18.473-.297c-10.253-.165-18.908-.732-19.45-1.274C154.296 88.696 150 88.714 150 90c0 1.442-2.749 1.233-3.286-.25-.355-.98-.958-.95-2.788.136-1.662.987-2.444 1.059-2.714.25-.473-1.418-4.212-1.511-4.212-.105m-3 2.386c0 .87.713 1.583 1.583 1.583.871 0 1.406-.534 1.188-1.187-.618-1.855-2.771-2.162-2.771-.396m10.639-.723c-1.126 1.126-.685 2.306.861 2.306.825 0 1.5-.423 1.5-.941 0-1.261-1.562-2.164-2.361-1.365M147 98.417c0 .87.713 1.583 1.583 1.583.871 0 1.406-.534 1.188-1.187-.618-1.855-2.771-2.162-2.771-.396M133 107c0 .646 11.167 1 31.5 1s31.5-.354 31.5-1-11.167-1-31.5-1-31.5.354-31.5 1m-65.204 5.366c-10.764 5.914-7.772 5.705 3.676-.256 3.285-1.711 5.085-3.058 4-2.994s-4.539 1.527-7.676 3.25M118 111c3.834 2.099 5.004 2.392 4.992 1.25-.01-.98-4.949-3.262-6.941-3.208-.853.023.024.904 1.949 1.958m-46.75 5.328c-5.638 2.82-10.25 5.715-10.25 6.433 0 1.012 2.425 1.243 10.75 1.023l10.75-.284.307-5.393c.169-2.966-.056-5.733-.5-6.15-.444-.416-5.419 1.55-11.057 4.371m30.75 1.206v6.534l10.75-.284c6.401-.169 10.708-.689 10.646-1.284-.092-.895-18.806-11.254-20.646-11.429-.412-.039-.75 2.869-.75 6.463M134 115c0 .645 10.814 1 30.441 1 19.215 0 30.669-.369 31.059-1 .407-.658-9.99-1-30.441-1-20.039 0-31.059.355-31.059 1M10.031 136.75c.09 8.042 2.976 22.878 5.982 30.75 4.59 12.022 11.095 24.753 15.213 29.772l2.274 2.772 5-3.576c2.75-1.966 8.262-5.232 12.25-7.258 5.693-2.893 7.25-4.157 7.25-5.888 0-1.212-.45-2.482-1-2.822s-1.029-2.054-1.064-3.809c-.084-4.173-2.197-13.781-3.451-15.691-.542-.825-1.885-1.5-2.985-1.5-1.556 0-2-.667-2-3 0-2.468.399-2.986 2.25-2.921 3.202.113 3.202-4.305 0-4.759-3.058-.435-3.706-5.238-.908-6.735 1.415-.758 1.933-2.03 1.861-4.567L50.604 134H10zM207 135c0 .55.477 1 1.059 1s.781-.45.441-1-.816-1-1.059-1-.441.45-.441 1m-166.333 1.667c-1.168 1.167-.718 4.045.833 5.333 2.009 1.668 4.5-.337 4.5-3.622 0-1.825-.543-2.378-2.333-2.378-1.284 0-2.634.3-3 .667m-16.966 1.965c-.385.386-.701 1.724-.701 2.974 0 1.904-.608 2.324-3.742 2.584-4.918.408-5.569 3.081-1.29 5.293 2.776 1.436 2.936 1.756 1.562 3.13-3.484 3.484-.405 6.728 4.099 4.318 1.966-1.052 2.902-1.081 4.419-.133 4.168 2.603 6.117 1.087 3.702-2.877-1.077-1.768-.939-2.306 1-3.896 1.237-1.015 2.25-2.786 2.25-3.935 0-1.714-.618-2.09-3.434-2.09-2.999 0-3.473-.347-3.75-2.741-.302-2.621-2.633-4.109-4.115-2.627m109.661.868c-.317.825-.314 2.182.005 3.014.505 1.316 4.629 1.48 31.357 1.25l30.776-.264.316-2.75.317-2.75h-31.098c-26.72 0-31.179.211-31.673 1.5m-47.326 5.298c-13.449 6.607-8.817 27.207 6.115 27.2 7.497-.003 14.849-6.816 14.849-13.76 0-4.962-3.544-10.624-8.209-13.113-4.748-2.535-8.087-2.621-12.755-.327m158.1 4.452c-.085 1.717-.699 2.75-1.636 2.75-.825 0-1.5.45-1.5 1 0 1.539 2.992 1.185 3.61-.427.302-.785.349-2.473.105-3.75-.397-2.082-.457-2.037-.579.427M205.232 154c0 1.925.206 2.713.457 1.75.252-.963.252-2.537 0-3.5-.251-.963-.457-.175-.457 1.75M161 153c0 .55.423 1 .941 1s1.219-.45 1.559-1-.084-1-.941-1-1.559.45-1.559 1m5.5 0c.34.55.816 1 1.059 1s.441-.45.441-1-.477-1-1.059-1-.781.45-.441 1m52.857 1.5c.825.825 1.812 1.5 2.194 1.5s.134-.675-.551-1.5-1.672-1.5-2.194-1.5-.274.675.551 1.5M158.5 157c.34.55.816 1 1.059 1s.441-.45.441-1-.477-1-1.059-1-.781.45-.441 1m11 0c.34.55.816 1 1.059 1s.441-.45.441-1-.477-1-1.059-1-.781.45-.441 1m54.5-.115c0 .897 3.005 2.443 3.598 1.851.171-.172-.568-.861-1.643-1.532-1.075-.672-1.955-.815-1.955-.319m-183.333 3.782c-.367.366-.667 1.941-.667 3.5 0 2.467.379 2.833 2.933 2.833 3.343 0 5.044-3.118 3.027-5.548-1.254-1.511-4.139-1.939-5.293-.785M157.5 161c-.34.55-.141 1 .441 1s1.059-.45 1.059-1-.198-1-.441-1-.719.45-1.059 1m3.5 1c0 .55.477 1 1.059 1s.781-.45.441-1-.816-1-1.059-1-.441.45-.441 1m8.75-.338c.688.278 1.813.278 2.5 0 .688-.277.125-.504-1.25-.504s-1.937.227-1.25.504M240 164c0 1.1.173 2 .383 2s.619-.9.907-2c.287-1.1.115-2-.384-2-.498 0-.906.9-.906 2m-37.385-.281c-1.154 1.153-.632 6.281.635 6.249 1.338-.034 4.75-2.342 4.75-3.213 0-.971-4.764-3.657-5.385-3.036m-51.404 8.38c-1.006.354.342.855 3.294 1.224 2.747.344 7.245 1.129 9.995 1.744 2.75.616 9.838 1.343 15.75 1.615 9.322.429 10.77.284 10.9-1.094.083-.873.195-2.044.25-2.601.109-1.108-37.223-1.932-40.189-.888M227.5 174c.34.55.816 1 1.059 1s.441-.45.441-1-.477-1-1.059-1-.781.45-.441 1m-3.124 11.545c-5.432 3.601-9.983 7.088-10.113 7.75-.282 1.435 8.542 6.994 10.132 6.383C225.783 199.144 236 182.1 236 180.317c0-2.19-1.341-1.587-11.624 5.228M200.158 183c0 1.375.227 1.938.504 1.25.278-.687.278-1.812 0-2.5-.277-.687-.504-.125-.504 1.25M182 190.882c0 .55.45 1.278 1 1.618s1 .168 1-.382-.45-1.278-1-1.618-1-.168-1 .382m-46.829 2.215c-1.896 3.037-.755 3.444 1.217.434.912-1.392 1.306-2.531.876-2.531s-1.372.944-2.093 2.097m2.036 4.884c-1.764 2.694-3.207 5.185-3.207 5.536 0 .848 4.156-4.414 5.819-7.368 2.473-4.392.606-3.083-2.612 1.832M179 195c0 .55.477 1 1.059 1s.781-.45.441-1-.816-1-1.059-1-.441.45-.441 1m-127.243 4.383c-4.258 2.319-8.871 5.093-10.251 6.166-2.497 1.942-2.5 1.962-.601 4.402l1.907 2.451 4.097-3.701c3.302-2.983 4.881-3.701 8.144-3.701 4.262 0 8.717 1.813 10.89 4.431 1.161 1.399.661 1.497-4.735.933-5.576-.583-6.228-.435-8.62 1.957-1.423 1.424-2.587 3.396-2.586 4.384.002.987 2.364 3.722 5.25 6.078 4.609 3.762 5.674 4.209 8.748 3.672 2.832-.494 3.261-.367 2.25.667-.687.703-1.25 1.666-1.25 2.139 0 .868 18.44 9.933 22.894 11.255 1.954.579 1.309-.585-3.5-6.326-3.242-3.87-6.643-8.084-7.559-9.363-1.463-2.044-1.924-2.171-3.791-1.043-2.314 1.398-4.044.869-4.044-1.236 0-.734-.675-1.593-1.5-1.91s-1.5-1.216-1.5-2c0-.783.675-1.683 1.5-2 1.547-.593 2.097-5.708.758-7.046-.408-.408-1.931-3.746-3.384-7.417-1.454-3.671-3.257-6.75-4.009-6.841-.751-.092-4.849 1.73-9.108 4.049m141.203.21c-1.083 2.526-2.24 5.676-2.573 7l-.604 2.407h13.55c7.618 0 13.81-.422 14.145-.964.328-.53-1.199-2.097-3.392-3.482-5.612-3.542-17.067-9.554-18.205-9.554-.523 0-1.838 2.067-2.921 4.593M149 203c-3.986 3.986-5.053 7.231-2.829 8.606.784.484.493.974-.881 1.483-1.891.699-1.964 1.096-.921 5.045 1.653 6.266 6.315 10.497 12.503 11.348 6.251.86 8.227.25 10.461-3.231.971-1.513 3.079-4.551 4.683-6.751 2.114-2.898 2.927-5.171 2.951-8.25.028-3.646-.535-4.818-3.967-8.25-3.905-3.905-4.167-4-11-4s-7.095.095-11 4m13.5 7c-.34.55.084 1 .941 1s1.559-.45 1.559-1-.423-1-.941-1-1.219.45-1.559 1m7.5 0c0 .55.675 1 1.5 1s1.5-.45 1.5-1-.675-1-1.5-1-1.5.45-1.5 1m-74 4c0 .55.45 1 1 1s1-.45 1-1-.45-1-1-1-1 .45-1 1m52.553.915a1.116 1.116 0 0 0 .362 1.532c.521.322 1.21.159 1.532-.362a1.116 1.116 0 0 0-.362-1.532 1.116 1.116 0 0 0-1.532.362M133.7 225.269c3.249 5.155 6.662 9.702 7.017 9.347.587-.587-6.027-10.576-7.017-10.598-.44-.01-.44.553 0 1.251m37.484 9.741c-3.475 3.844-5.725 6.988-5 6.985 2.067-.007 19.882-8.282 24.298-11.286l3.982-2.709-8.482.01-8.482.009zM135.5 236c.995 1.1 1.981 2 2.19 2s-.101-.9-.69-2-1.574-2-2.19-2-.305.9.69 2"/></svg>